<?xml version="1.0" standalone="no"?><!DOCTYPE svg PUBLIC "-//W3C//DTD SVG 1.1//EN" "http://www.w3.org/Graphics/SVG/1.1/DTD/svg11.dtd"><svg t="1616033534632" class="icon" viewBox="0 0 1024 1024" version="1.1" xmlns="http://www.w3.org/2000/svg" p-id="5275" xmlns:xlink="http://www.w3.org/1999/xlink" width="16" height="16"><defs><style type="text/css"></style></defs><path d="M510.362 995.587c-269.967 0-489.609-219.642-489.609-489.595s219.642-489.609 489.609-489.609 489.595 219.642 489.595 489.609-219.628 489.595-489.595 489.595zM510.362 57.344c-247.385 0-448.649 201.25-448.649 448.649s201.264 448.635 448.649 448.635 448.635-201.25 448.635-448.635-201.264-448.649-448.635-448.649z" p-id="5276" fill="#8a8a8a"></path><path d="M707.092 797.082h-393.475c-33.874 0-61.44-27.566-61.44-61.44v-230.386c0-33.874 27.566-61.44 61.44-61.44h393.475c33.874 0 61.44 27.566 61.44 61.44v230.386c0 33.888-27.566 61.44-61.44 61.44zM313.617 484.775c-11.292 0-20.48 9.188-20.48 20.48v230.386c0 11.292 9.188 20.48 20.48 20.48h393.475c11.292 0 20.48-9.188 20.48-20.48v-230.386c0-11.292-9.188-20.48-20.48-20.48h-393.475z" p-id="5277" fill="#8a8a8a"></path><path d="M653.148 484.625h-306.067v-126.948c0-90.030 73.236-163.28 163.266-163.28s163.28 73.25 163.28 163.28v7.55h-40.96v-7.55c0-67.447-54.873-122.32-122.32-122.32-67.434 0-122.306 54.873-122.306 122.32v85.988h265.107v40.96z" p-id="5278" fill="#8a8a8a"></path></svg>